<svg xmlns="http://www.w3.org/2000/svg" viewBox="0,0,256,256" width="24px" height="24px" fill-rule="nonzero"><g fill="#f4f6f8" fill-rule="nonzero" stroke="none" stroke-width="1" stroke-linecap="butt" stroke-linejoin="miter" stroke-miterlimit="10" stroke-dasharray="" stroke-dashoffset="0" font-family="none" font-size="none" style="mix-blend-mode: normal"><g transform="scale(5.12,5.12)"><path d="M25,1c-13.78516,0 -25,9.96094 -25,22.19922c0,5.91406 2.57422,11.44531 7.26172,15.63672c-0.86719,2.55859 -3.08984,4.32031 -4.74219,5.62891c-1.51563,1.19922 -2.61328,2.06641 -2.28516,3.29297l0.10547,0.40234l0.35938,0.20703c0.91016,0.51953 2.12109,0.78516 3.60938,0.78516c4.94922,0 12.0625,-2.83984 15.19531,-4.20703c1.78125,0.37109 3.55078,0.55469 5.39453,0.55469c13.78906,0 25,-9.96094 25,-22.19922c0,-12.29687 -11.16797,-22.30078 -24.89844,-22.30078zM26.60156,34c0,0.19922 -0.10156,0.39844 -0.40234,0.39844h-2.29687v-0.09766c-0.20312,0 -0.40234,-0.10156 -0.40234,-0.39844v-13.40234c0,-0.19922 0.10156,-0.39844 0.40234,-0.39844h2.29688c0.20313,0 0.40234,0.09766 0.40234,0.39844zM26.60156,15.80078c0,0.19922 -0.10156,0.39844 -0.40234,0.39844h-2.39844c-0.19922,0 -0.39844,-0.09766 -0.39844,-0.39844v-2.60156c0,-0.19922 0.09766,-0.39844 0.39844,-0.39844h2.39844c0.20313,0 0.40234,0.09766 0.40234,0.39844z"> </path></g></g></svg>