<svg width="20" height="18" viewBox="0 0 20 18" fill="none" xmlns="http://www.w3.org/2000/svg">
<path fill-rule="evenodd" clip-rule="evenodd" d="M4.28472 0.286318C0.582052 1.41942 -0.738149 5.24878 0.391497 8.59909C2.20862 13.9716 10.0014 18 10.0014 18C10.0014 18 17.8521 13.9096 19.6102 8.59909C20.7388 5.24878 19.4102 1.41942 15.7075 0.286318C13.762 -0.306737 11.5332 0.0732981 10.0014 1.1984C8.38219 0.0412952 6.23239 -0.310738 4.28472 0.286318ZM13.7574 3.27339C13.3561 3.17069 12.9476 3.41273 12.8448 3.81401C12.7421 4.21529 12.9842 4.62385 13.3855 4.72655C14.768 5.08039 15.5877 6.009 15.6825 6.93363C15.7247 7.34569 16.093 7.64546 16.5051 7.6032C16.9171 7.56094 17.2169 7.19264 17.1747 6.78059C16.9982 5.06042 15.5644 3.73588 13.7574 3.27339Z" fill="#FF6934"/>
</svg>
